{"asset":{"version":"2.0","generator":"ShipHub FLNG Sample"},"scene":0,"scenes":[{"nodes":[0,1,2,3,4,5,6,7]}],"nodes":[{"name":"hull_main","mesh":0,"translation":[-10,-3,0]},{"name":"hull_bow","mesh":1,"translation":[25,-3,0]},{"name":"deck","mesh":2,"translation":[-9.5,0.3,0]},{"name":"topside_module_1","mesh":3,"translation":[-18,3.6,0]},{"name":"topside_module_2","mesh":4,"translation":[-1,3.6,0]},{"name":"topside_module_3","mesh":5,"translation":[16,3.6,0]},{"name":"accommodation","mesh":6,"translation":[-38,10.6,0]},{"name":"flare_tower","mesh":7,"translation":[30,15.6,8]}],"meshes":[{"name":"hull_main_mesh","primitives":[{"attributes":{"POSITION":0,"COLOR_0":1},"indices":2,"mode":4}]},{"name":"hull_bow_mesh","primitives":[{"attributes":{"POSITION":3,"COLOR_0":4},"indices":5,"mode":4}]},{"name":"deck_mesh","primitives":[{"attributes":{"POSITION":6,"COLOR_0":7},"indices":8,"mode":4}]},{"name":"topside_module_1_mesh","primitives":[{"attributes":{"POSITION":9,"COLOR_0":10},"indices":11,"mode":4}]},{"name":"topside_module_2_mesh","primitives":[{"attributes":{"POSITION":12,"COLOR_0":13},"indices":14,"mode":4}]},{"name":"topside_module_3_mesh","primitives":[{"attributes":{"POSITION":15,"COLOR_0":16},"indices":17,"mode":4}]},{"name":"accommodation_mesh","primitives":[{"attributes":{"POSITION":18,"COLOR_0":19},"indices":20,"mode":4}]},{"name":"flare_tower_mesh","primitives":[{"attributes":{"POSITION":21,"COLOR_0":22},"indices":23,"mode":4}]}],"accessors":[{"bufferView":0,"componentType":5126,"count":8,"type":"VEC3","max":[35,3,10],"min":[-35,-3,-10]},{"bufferView":1,"componentType":5121,"normalized":true,"count":8,"type":"VEC4"},{"bufferView":2,"componentType":5123,"count":36,"type":"SCALAR"},{"bufferView":3,"componentType":5126,"count":5,"type":"VEC3","max":[20,3,10],"min":[0,-3,-10]},{"bufferView":4,"componentType":5121,"normalized":true,"count":5,"type":"VEC4"},{"bufferView":5,"componentType":5123,"count":18,"type":"SCALAR"},{"bufferView":6,"componentType":5126,"count":8,"type":"VEC3","max":[45.5,0.3,10.3],"min":[-45.5,-0.3,-10.3]},{"bufferView":7,"componentType":5121,"normalized":true,"count":8,"type":"VEC4"},{"bufferView":8,"componentType":5123,"count":36,"type":"SCALAR"},{"bufferView":9,"componentType":5126,"count":8,"type":"VEC3","max":[6,3,6],"min":[-6,-3,-6]},{"bufferView":10,"componentType":5121,"normalized":true,"count":8,"type":"VEC4"},{"bufferView":11,"componentType":5123,"count":36,"type":"SCALAR"},{"bufferView":12,"componentType":5126,"count":8,"type":"VEC3","max":[6,3,6],"min":[-6,-3,-6]},{"bufferView":13,"componentType":5121,"normalized":true,"count":8,"type":"VEC4"},{"bufferView":14,"componentType":5123,"count":36,"type":"SCALAR"},{"bufferView":15,"componentType":5126,"count":8,"type":"VEC3","max":[6,3,6],"min":[-6,-3,-6]},{"bufferView":16,"componentType":5121,"normalized":true,"count":8,"type":"VEC4"},{"bufferView":17,"componentType":5123,"count":36,"type":"SCALAR"},{"bufferView":18,"componentType":5126,"count":8,"type":"VEC3","max":[5,10,6],"min":[-5,-10,-6]},{"bufferView":19,"componentType":5121,"normalized":true,"count":8,"type":"VEC4"},{"bufferView":20,"componentType":5123,"count":36,"type":"SCALAR"},{"bufferView":21,"componentType":5126,"count":8,"type":"VEC3","max":[1,15,1],"min":[-1,-15,-1]},{"bufferView":22,"componentType":5121,"normalized":true,"count":8,"type":"VEC4"},{"bufferView":23,"componentType":5123,"count":36,"type":"SCALAR"}],"bufferViews":[{"buffer":0,"byteOffset":0,"byteLength":96},{"buffer":0,"byteOffset":732,"byteLength":32},{"buffer":0,"byteOffset":976,"byteLength":72},{"buffer":0,"byteOffset":96,"byteLength":60},{"buffer":0,"byteOffset":764,"byteLength":20},{"buffer":0,"byteOffset":1048,"byteLength":36},{"buffer":0,"byteOffset":156,"byteLength":96},{"buffer":0,"byteOffset":784,"byteLength":32},{"buffer":0,"byteOffset":1084,"byteLength":72},{"buffer":0,"byteOffset":252,"byteLength":96},{"buffer":0,"byteOffset":816,"byteLength":32},{"buffer":0,"byteOffset":1156,"byteLength":72},{"buffer":0,"byteOffset":348,"byteLength":96},{"buffer":0,"byteOffset":848,"byteLength":32},{"buffer":0,"byteOffset":1228,"byteLength":72},{"buffer":0,"byteOffset":444,"byteLength":96},{"buffer":0,"byteOffset":880,"byteLength":32},{"buffer":0,"byteOffset":1300,"byteLength":72},{"buffer":0,"byteOffset":540,"byteLength":96},{"buffer":0,"byteOffset":912,"byteLength":32},{"buffer":0,"byteOffset":1372,"byteLength":72},{"buffer":0,"byteOffset":636,"byteLength":96},{"buffer":0,"byteOffset":944,"byteLength":32},{"buffer":0,"byteOffset":1444,"byteLength":72}],"buffers":[{"uri":"ship_sample.bin","byteLength":1516}]}